<svg width="70" height="70" viewBox="0 0 70 70" fill="none" xmlns="http://www.w3.org/2000/svg">
<circle cx="35" cy="35" r="33.5" fill="#EFB5C0" stroke="black" stroke-width="3"/>
<path d="M28.5455 31H25.7273C25.5606 30.1894 25.2689 29.4773 24.8523 28.8636C24.4432 28.25 23.9432 27.7348 23.3523 27.3182C22.7689 26.8939 22.1212 26.5758 21.4091 26.3636C20.697 26.1515 19.9545 26.0455 19.1818 26.0455C17.7727 26.0455 16.4962 26.4015 15.3523 27.1136C14.2159 27.8258 13.3106 28.875 12.6364 30.2614C11.9697 31.6477 11.6364 33.3485 11.6364 35.3636C11.6364 37.3788 11.9697 39.0795 12.6364 40.4659C13.3106 41.8523 14.2159 42.9015 15.3523 43.6136C16.4962 44.3258 17.7727 44.6818 19.1818 44.6818C19.9545 44.6818 20.697 44.5758 21.4091 44.3636C22.1212 44.1515 22.7689 43.8371 23.3523 43.4205C23.9432 42.9962 24.4432 42.4773 24.8523 41.8636C25.2689 41.2424 25.5606 40.5303 25.7273 39.7273H28.5455C28.3333 40.9167 27.947 41.9811 27.3864 42.9205C26.8258 43.8598 26.1288 44.6591 25.2955 45.3182C24.4621 45.9697 23.5265 46.4659 22.4886 46.8068C21.4583 47.1477 20.3561 47.3182 19.1818 47.3182C17.197 47.3182 15.4318 46.8333 13.8864 45.8636C12.3409 44.8939 11.125 43.5152 10.2386 41.7273C9.35227 39.9394 8.90909 37.8182 8.90909 35.3636C8.90909 32.9091 9.35227 30.7879 10.2386 29C11.125 27.2121 12.3409 25.8333 13.8864 24.8636C15.4318 23.8939 17.197 23.4091 19.1818 23.4091C20.3561 23.4091 21.4583 23.5795 22.4886 23.9205C23.5265 24.2614 24.4621 24.7614 25.2955 25.4205C26.1288 26.072 26.8258 26.8674 27.3864 27.8068C27.947 28.7386 28.3333 29.803 28.5455 31ZM33.0994 47V23.7273H35.9176V34.0909H48.3267V23.7273H51.1449V47H48.3267V36.5909H35.9176V47H33.0994ZM59.1051 47.1591C58.3551 47.1591 57.6866 47.0303 57.0994 46.7727C56.5161 46.5152 56.0521 46.1572 55.7074 45.6989C55.3665 45.2367 55.1809 44.7008 55.1506 44.0909H56.5824C56.6127 44.4659 56.7415 44.7898 56.9688 45.0625C57.196 45.3314 57.4934 45.5398 57.8608 45.6875C58.2282 45.8352 58.6354 45.9091 59.0824 45.9091C59.5824 45.9091 60.0256 45.822 60.4119 45.6477C60.7983 45.4735 61.1013 45.2311 61.321 44.9205C61.5407 44.6098 61.6506 44.25 61.6506 43.8409C61.6506 43.4129 61.5445 43.036 61.3324 42.7102C61.1203 42.3807 60.8097 42.1231 60.4006 41.9375C59.9915 41.7519 59.4915 41.6591 58.9006 41.6591H57.9688V40.4091H58.9006C59.3627 40.4091 59.768 40.3258 60.1165 40.1591C60.4688 39.9924 60.7434 39.7576 60.9403 39.4545C61.1411 39.1515 61.2415 38.7955 61.2415 38.3864C61.2415 37.9924 61.1544 37.6496 60.9801 37.358C60.8059 37.0663 60.5597 36.839 60.2415 36.6761C59.9271 36.5133 59.5559 36.4318 59.1278 36.4318C58.7263 36.4318 58.3475 36.5057 57.9915 36.6534C57.6392 36.7973 57.3513 37.0076 57.1278 37.2841C56.9044 37.5568 56.7831 37.8864 56.7642 38.2727H55.4006C55.4233 37.6629 55.607 37.1288 55.9517 36.6705C56.2964 36.2083 56.7472 35.8485 57.304 35.5909C57.8646 35.3333 58.4801 35.2045 59.1506 35.2045C59.8703 35.2045 60.4877 35.3504 61.0028 35.642C61.518 35.9299 61.9138 36.3106 62.1903 36.7841C62.4669 37.2576 62.6051 37.7689 62.6051 38.3182C62.6051 38.9735 62.4328 39.5322 62.0881 39.9943C61.7472 40.4564 61.2831 40.7765 60.696 40.9545V41.0455C61.4309 41.1667 62.0047 41.4792 62.4176 41.983C62.8305 42.483 63.0369 43.1023 63.0369 43.8409C63.0369 44.4735 62.8646 45.0417 62.5199 45.5455C62.179 46.0455 61.7131 46.4394 61.1222 46.7273C60.5313 47.0152 59.8589 47.1591 59.1051 47.1591Z" fill="black"/>
</svg>
