<svg width="70" height="70" viewBox="0 0 70 70" fill="none" xmlns="http://www.w3.org/2000/svg">
<circle cx="35" cy="35" r="33.5" fill="#B2B3B3" stroke="black" stroke-width="3"/>
<path d="M46.9318 29H43.4091C43.2008 27.9867 42.8362 27.0966 42.3153 26.3295C41.804 25.5625 41.179 24.9186 40.4403 24.3977C39.7112 23.8674 38.9015 23.4697 38.0114 23.2045C37.1212 22.9394 36.1932 22.8068 35.2273 22.8068C33.4659 22.8068 31.8703 23.2519 30.4403 24.142C29.0199 25.0322 27.8883 26.3438 27.0455 28.0767C26.2121 29.8097 25.7955 31.9356 25.7955 34.4545C25.7955 36.9735 26.2121 39.0994 27.0455 40.8324C27.8883 42.5653 29.0199 43.8769 30.4403 44.767C31.8703 45.6572 33.4659 46.1023 35.2273 46.1023C36.1932 46.1023 37.1212 45.9697 38.0114 45.7045C38.9015 45.4394 39.7112 45.0464 40.4403 44.5256C41.179 43.9953 41.804 43.3466 42.3153 42.5795C42.8362 41.803 43.2008 40.9129 43.4091 39.9091H46.9318C46.6667 41.3958 46.1837 42.7263 45.483 43.9006C44.7822 45.0748 43.911 46.0739 42.8693 46.8977C41.8277 47.7121 40.6581 48.3324 39.3608 48.7585C38.0729 49.1847 36.6951 49.3977 35.2273 49.3977C32.7462 49.3977 30.5398 48.7917 28.608 47.5795C26.6761 46.3674 25.1563 44.6439 24.0483 42.4091C22.9403 40.1742 22.3864 37.5227 22.3864 34.4545C22.3864 31.3864 22.9403 28.7348 24.0483 26.5C25.1563 24.2652 26.6761 22.5417 28.608 21.3295C30.5398 20.1174 32.7462 19.5114 35.2273 19.5114C36.6951 19.5114 38.0729 19.7244 39.3608 20.1506C40.6581 20.5767 41.8277 21.2017 42.8693 22.0256C43.911 22.84 44.7822 23.8343 45.483 25.0085C46.1837 26.1733 46.6667 27.5038 46.9318 29Z" fill="black"/>
</svg>
