<svg width="74" height="70" viewBox="0 0 74 70" fill="none" xmlns="http://www.w3.org/2000/svg">
<circle cx="35" cy="35" r="33.5" fill="#6AB760" stroke="black" stroke-width="3"/>
<path d="M41.9318 29H38.4091C38.2008 27.9867 37.8362 27.0966 37.3153 26.3295C36.804 25.5625 36.179 24.9186 35.4403 24.3977C34.7112 23.8674 33.9015 23.4697 33.0114 23.2045C32.1212 22.9394 31.1932 22.8068 30.2273 22.8068C28.4659 22.8068 26.8703 23.2519 25.4403 24.142C24.0199 25.0322 22.8883 26.3438 22.0455 28.0767C21.2121 29.8097 20.7955 31.9356 20.7955 34.4545C20.7955 36.9735 21.2121 39.0994 22.0455 40.8324C22.8883 42.5653 24.0199 43.8769 25.4403 44.767C26.8703 45.6572 28.4659 46.1023 30.2273 46.1023C31.1932 46.1023 32.1212 45.9697 33.0114 45.7045C33.9015 45.4394 34.7112 45.0464 35.4403 44.5256C36.179 43.9953 36.804 43.3466 37.3153 42.5795C37.8362 41.803 38.2008 40.9129 38.4091 39.9091H41.9318C41.6667 41.3958 41.1837 42.7263 40.483 43.9006C39.7822 45.0748 38.911 46.0739 37.8693 46.8977C36.8277 47.7121 35.6581 48.3324 34.3608 48.7585C33.0729 49.1847 31.6951 49.3977 30.2273 49.3977C27.7462 49.3977 25.5398 48.7917 23.608 47.5795C21.6761 46.3674 20.1563 44.6439 19.0483 42.4091C17.9403 40.1742 17.3864 37.5227 17.3864 34.4545C17.3864 31.3864 17.9403 28.7348 19.0483 26.5C20.1563 24.2652 21.6761 22.5417 23.608 21.3295C25.5398 20.1174 27.7462 19.5114 30.2273 19.5114C31.6951 19.5114 33.0729 19.7244 34.3608 20.1506C35.6581 20.5767 36.8277 21.2017 37.8693 22.0256C38.911 22.84 39.7822 23.8343 40.483 25.0085C41.1837 26.1733 41.6667 27.5038 41.9318 29ZM50.522 19.9091V49H47.1697V19.9091H50.522Z" fill="black"/>
</svg>
