<svg width="70" height="70" viewBox="0 0 70 70" fill="none" xmlns="http://www.w3.org/2000/svg">
<rect x="1.5" y="1.5" width="67" height="67" rx="33.5" fill="black" stroke="black" stroke-width="3"/>
<path d="M12.2798 21.8182H13.7514L17.2116 30.2699H17.331L20.7912 21.8182H22.2628V32H21.1094V24.2642H21.0099L17.8281 32H16.7145L13.5327 24.2642H13.4332V32H12.2798V21.8182ZM27.7775 32.1591C27.0417 32.1591 26.407 31.9967 25.8734 31.6719C25.3431 31.3438 24.9338 30.8864 24.6454 30.2997C24.3604 29.7098 24.2179 29.0237 24.2179 28.2415C24.2179 27.4593 24.3604 26.7699 24.6454 26.1733C24.9338 25.5734 25.3348 25.1061 25.8485 24.7713C26.3656 24.4332 26.9688 24.2642 27.6582 24.2642C28.0559 24.2642 28.4487 24.3305 28.8365 24.4631C29.2243 24.5956 29.5772 24.8111 29.8954 25.1094C30.2136 25.4044 30.4672 25.7955 30.6561 26.2827C30.845 26.7699 30.9395 27.3698 30.9395 28.0824V28.5795H25.0531V27.5653H29.7463C29.7463 27.1345 29.6601 26.75 29.4877 26.4119C29.3187 26.0739 29.0768 25.8071 28.7619 25.6115C28.4503 25.416 28.0824 25.3182 27.6582 25.3182C27.1909 25.3182 26.7865 25.4342 26.4451 25.6662C26.1071 25.8949 25.8469 26.1932 25.6646 26.5611C25.4823 26.929 25.3912 27.3234 25.3912 27.7443V28.4205C25.3912 28.9972 25.4906 29.486 25.6895 29.8871C25.8916 30.2848 26.1717 30.5881 26.5297 30.7969C26.8876 31.0024 27.3036 31.1051 27.7775 31.1051C28.0858 31.1051 28.3642 31.062 28.6127 30.9759C28.8646 30.8864 29.0817 30.7538 29.264 30.5781C29.4463 30.3991 29.5872 30.1771 29.6866 29.9119L30.8201 30.2301C30.7008 30.6146 30.5003 30.9527 30.2186 31.2443C29.9368 31.5327 29.5888 31.758 29.1745 31.9205C28.7602 32.0795 28.2946 32.1591 27.7775 32.1591ZM32.7243 24.3636H33.8975V30.9062H36.7811V24.3636H37.9544V30.9062H40.8379V24.3636H42.0112V32H32.7243V24.3636ZM47.2562 32.1591C46.5668 32.1591 45.9619 31.995 45.4416 31.6669C44.9245 31.3388 44.5202 30.8797 44.2285 30.2898C43.9402 29.6998 43.796 29.0104 43.796 28.2216C43.796 27.4261 43.9402 26.7318 44.2285 26.1385C44.5202 25.5452 44.9245 25.0845 45.4416 24.7564C45.9619 24.4283 46.5668 24.2642 47.2562 24.2642C47.9456 24.2642 48.5488 24.4283 49.0659 24.7564C49.5862 25.0845 49.9906 25.5452 50.2789 26.1385C50.5706 26.7318 50.7164 27.4261 50.7164 28.2216C50.7164 29.0104 50.5706 29.6998 50.2789 30.2898C49.9906 30.8797 49.5862 31.3388 49.0659 31.6669C48.5488 31.995 47.9456 32.1591 47.2562 32.1591ZM47.2562 31.1051C47.7799 31.1051 48.2108 30.9709 48.5488 30.7024C48.8869 30.4339 49.1371 30.081 49.2995 29.6435C49.4619 29.206 49.5431 28.732 49.5431 28.2216C49.5431 27.7112 49.4619 27.2356 49.2995 26.7947C49.1371 26.3539 48.8869 25.9976 48.5488 25.7259C48.2108 25.4541 47.7799 25.3182 47.2562 25.3182C46.7325 25.3182 46.3017 25.4541 45.9636 25.7259C45.6255 25.9976 45.3753 26.3539 45.2129 26.7947C45.0505 27.2356 44.9693 27.7112 44.9693 28.2216C44.9693 28.732 45.0505 29.206 45.2129 29.6435C45.3753 30.081 45.6255 30.4339 45.9636 30.7024C46.3017 30.9709 46.7325 31.1051 47.2562 31.1051ZM52.5075 32V24.3636H53.6808V27.6847H54.4563L57.2006 24.3636H58.712L55.6296 28.0426L58.7518 32H57.2404L54.7347 28.7784H53.6808V32H52.5075ZM18.861 49V41.3636H24.8667V49H23.6934V42.4574H20.0343V49H18.861ZM27.4917 51.8636C27.2928 51.8636 27.1155 51.8471 26.9597 51.8139C26.8039 51.7841 26.6962 51.7543 26.6365 51.7244L26.9348 50.6903C27.2199 50.7633 27.4718 50.7898 27.6905 50.7699C27.9093 50.75 28.1032 50.6522 28.2722 50.4766C28.4445 50.3042 28.602 50.0241 28.7445 49.6364L28.9632 49.0398L26.1394 41.3636H27.4121L29.5201 47.4489H29.5996L31.7076 41.3636H32.9803L29.7388 50.1136C29.593 50.508 29.4123 50.8345 29.1969 51.093C28.9815 51.3549 28.7312 51.5488 28.4462 51.6747C28.1645 51.8007 27.8463 51.8636 27.4917 51.8636ZM37.3578 49.1591C36.6419 49.1591 36.0254 48.9901 35.5083 48.652C34.9913 48.3139 34.5936 47.8482 34.3152 47.255C34.0368 46.6617 33.8975 45.9839 33.8975 45.2216C33.8975 44.446 34.0401 43.7616 34.3251 43.1683C34.6135 42.5717 35.0145 42.1061 35.5282 41.7713C36.0453 41.4332 36.6485 41.2642 37.3379 41.2642C37.8748 41.2642 38.3587 41.3636 38.7896 41.5625C39.2205 41.7614 39.5734 42.0398 39.8485 42.3977C40.1236 42.7557 40.2943 43.1733 40.3606 43.6506H39.1873C39.0978 43.3026 38.899 42.9943 38.5907 42.7259C38.2858 42.4541 37.8748 42.3182 37.3578 42.3182C36.9004 42.3182 36.4993 42.4375 36.1547 42.6761C35.8133 42.9115 35.5465 43.2446 35.3542 43.6754C35.1653 44.103 35.0708 44.6051 35.0708 45.1818C35.0708 45.7718 35.1636 46.2855 35.3493 46.723C35.5382 47.1605 35.8033 47.5002 36.1447 47.7422C36.4894 47.9841 36.8938 48.1051 37.3578 48.1051C37.6627 48.1051 37.9395 48.0521 38.188 47.946C38.4366 47.84 38.6471 47.6875 38.8194 47.4886C38.9918 47.2898 39.1144 47.0511 39.1873 46.7727H40.3606C40.2943 47.2235 40.1303 47.6295 39.8684 47.9908C39.6099 48.3487 39.2669 48.6338 38.8393 48.8459C38.4151 49.0547 37.9212 49.1591 37.3578 49.1591ZM41.4743 42.4574V41.3636H47.6788V42.4574H45.1731V49H43.9998V42.4574H41.4743ZM50.9414 38.8182L50.842 46.1364H49.6886L49.5891 38.8182H50.9414ZM50.2653 49.0795C50.02 49.0795 49.8095 48.9917 49.6339 48.8161C49.4582 48.6404 49.3704 48.4299 49.3704 48.1847C49.3704 47.9394 49.4582 47.7289 49.6339 47.5533C49.8095 47.3776 50.02 47.2898 50.2653 47.2898C50.5105 47.2898 50.721 47.3776 50.8967 47.5533C51.0723 47.7289 51.1602 47.9394 51.1602 48.1847C51.1602 48.3471 51.1187 48.4962 51.0359 48.6321C50.9563 48.768 50.8486 48.8774 50.7127 48.9602C50.5801 49.0398 50.431 49.0795 50.2653 49.0795Z" fill="white"/>
</svg>
