<svg width="70" height="70" viewBox="0 0 70 70" fill="none" xmlns="http://www.w3.org/2000/svg">
<rect x="1.5" y="1.5" width="67" height="67" rx="33.5" fill="black" stroke="black" stroke-width="3"/>
<path d="M32.3065 41.8182V41.6477C32.3254 39.839 32.5148 38.3996 32.8746 37.3295C33.2345 36.2595 33.7459 35.393 34.4087 34.7301C35.0716 34.0672 35.8671 33.4564 36.7951 32.8977C37.3538 32.5568 37.8557 32.1544 38.3008 31.6903C38.7459 31.2169 39.0962 30.6723 39.3519 30.0568C39.6171 29.4413 39.7496 28.7595 39.7496 28.0114C39.7496 27.0833 39.5318 26.2784 39.0962 25.5966C38.6606 24.9148 38.0782 24.3892 37.3491 24.0199C36.6199 23.6506 35.8103 23.4659 34.9201 23.4659C34.1436 23.4659 33.3955 23.6269 32.6758 23.9489C31.9561 24.2708 31.3548 24.7775 30.8718 25.4688C30.3888 26.16 30.1095 27.0644 30.0337 28.1818H26.4542C26.5299 26.572 26.9466 25.1941 27.7042 24.0483C28.4712 22.9025 29.4798 22.0265 30.7298 21.4205C31.9892 20.8144 33.386 20.5114 34.9201 20.5114C36.5868 20.5114 38.0356 20.8428 39.2667 21.5057C40.5072 22.1686 41.4637 23.0777 42.136 24.233C42.8178 25.3883 43.1587 26.7045 43.1587 28.1818C43.1587 29.2235 42.9978 30.1657 42.6758 31.0085C42.3633 31.8513 41.9087 32.6042 41.3121 33.267C40.725 33.9299 40.0148 34.517 39.1815 35.0284C38.3481 35.5492 37.6805 36.0985 37.1786 36.6761C36.6767 37.2443 36.3121 37.9214 36.0849 38.7074C35.8576 39.4934 35.7345 40.4735 35.7156 41.6477V41.8182H32.3065ZM34.1246 50.2273C33.4239 50.2273 32.8226 49.9763 32.3207 49.4744C31.8188 48.9725 31.5678 48.3712 31.5678 47.6705C31.5678 46.9697 31.8188 46.3684 32.3207 45.8665C32.8226 45.3646 33.4239 45.1136 34.1246 45.1136C34.8254 45.1136 35.4267 45.3646 35.9286 45.8665C36.4305 46.3684 36.6815 46.9697 36.6815 47.6705C36.6815 48.1345 36.5631 48.5606 36.3263 48.9489C36.0991 49.3371 35.7913 49.6496 35.4031 49.8864C35.0243 50.1136 34.5981 50.2273 34.1246 50.2273Z" fill="white"/>
</svg>
