<svg width="70" height="70" viewBox="0 0 70 70" fill="none" xmlns="http://www.w3.org/2000/svg">
<circle cx="35" cy="35" r="33.5" fill="#E698C1" stroke="black" stroke-width="3"/>
<path d="M25.1591 31H23.0455C22.9205 30.392 22.7017 29.858 22.3892 29.3977C22.0824 28.9375 21.7074 28.5511 21.2642 28.2386C20.8267 27.9205 20.3409 27.6818 19.8068 27.5227C19.2727 27.3636 18.7159 27.2841 18.1364 27.2841C17.0795 27.2841 16.1222 27.5511 15.2642 28.0852C14.4119 28.6193 13.733 29.4062 13.2273 30.446C12.7273 31.4858 12.4773 32.7614 12.4773 34.2727C12.4773 35.7841 12.7273 37.0597 13.2273 38.0994C13.733 39.1392 14.4119 39.9261 15.2642 40.4602C16.1222 40.9943 17.0795 41.2614 18.1364 41.2614C18.7159 41.2614 19.2727 41.1818 19.8068 41.0227C20.3409 40.8636 20.8267 40.6278 21.2642 40.3153C21.7074 39.9972 22.0824 39.608 22.3892 39.1477C22.7017 38.6818 22.9205 38.1477 23.0455 37.5455H25.1591C25 38.4375 24.7102 39.2358 24.2898 39.9403C23.8693 40.6449 23.3466 41.2443 22.7216 41.7386C22.0966 42.2273 21.3949 42.5994 20.6165 42.8551C19.8438 43.1108 19.017 43.2386 18.1364 43.2386C16.6477 43.2386 15.3239 42.875 14.1648 42.1477C13.0057 41.4205 12.0938 40.3864 11.429 39.0455C10.7642 37.7045 10.4318 36.1136 10.4318 34.2727C10.4318 32.4318 10.7642 30.8409 11.429 29.5C12.0938 28.1591 13.0057 27.125 14.1648 26.3977C15.3239 25.6705 16.6477 25.3068 18.1364 25.3068C19.017 25.3068 19.8438 25.4347 20.6165 25.6903C21.3949 25.946 22.0966 26.321 22.7216 26.8153C23.3466 27.304 23.8693 27.9006 24.2898 28.6051C24.7102 29.304 25 30.1023 25.1591 31ZM31.5291 43.1591C31.0518 43.1515 30.5746 43.0606 30.0973 42.8864C29.62 42.7121 29.1844 42.4186 28.7905 42.0057C28.3965 41.589 28.0803 41.0265 27.8416 40.3182C27.603 39.6061 27.4837 38.7121 27.4837 37.6364C27.4837 36.6061 27.5803 35.6932 27.7734 34.8977C27.9666 34.0985 28.2469 33.4261 28.6143 32.8807C28.9818 32.3314 29.425 31.9148 29.9439 31.6307C30.4666 31.3466 31.0556 31.2045 31.7109 31.2045C32.3625 31.2045 32.942 31.3352 33.4496 31.5966C33.9609 31.8542 34.3776 32.214 34.6996 32.6761C35.0215 33.1383 35.2299 33.6705 35.3246 34.2727H33.9382C33.8094 33.75 33.5594 33.3163 33.1882 32.9716C32.817 32.6269 32.3246 32.4545 31.7109 32.4545C30.8094 32.4545 30.0992 32.8466 29.5803 33.6307C29.0651 34.4148 28.8056 35.5152 28.8018 36.9318H28.8928C29.1049 36.6098 29.3568 36.3352 29.6484 36.108C29.9439 35.8769 30.2696 35.6989 30.6257 35.5739C30.9818 35.4489 31.3587 35.3864 31.7564 35.3864C32.4231 35.3864 33.0329 35.553 33.5859 35.8864C34.139 36.2159 34.5821 36.6723 34.9155 37.2557C35.2488 37.8352 35.4155 38.5 35.4155 39.25C35.4155 39.9697 35.2545 40.6288 34.9325 41.2273C34.6106 41.822 34.1579 42.2955 33.5746 42.6477C32.995 42.9962 32.3132 43.1667 31.5291 43.1591ZM31.5291 41.9091C32.0064 41.9091 32.4344 41.7898 32.8132 41.5511C33.1958 41.3125 33.4969 40.9924 33.7166 40.5909C33.9401 40.1894 34.0518 39.7424 34.0518 39.25C34.0518 38.7689 33.9439 38.3314 33.728 37.9375C33.5159 37.5398 33.2223 37.2235 32.8473 36.9886C32.4761 36.7538 32.0518 36.6364 31.5746 36.6364C31.2147 36.6364 30.8795 36.7083 30.5689 36.8523C30.2583 36.9924 29.9856 37.1856 29.7507 37.4318C29.5196 37.678 29.3378 37.9602 29.2053 38.2784C29.0727 38.5928 29.0064 38.9242 29.0064 39.2727C29.0064 39.7348 29.1143 40.1667 29.3303 40.5682C29.55 40.9697 29.8492 41.2936 30.228 41.5398C30.6106 41.786 31.0443 41.9091 31.5291 41.9091ZM38.5589 43V25.5455H40.6726V33.3182H49.9794V25.5455H52.093V43H49.9794V35.1932H40.6726V43H38.5589ZM55.1428 40.6136V39.4545L60.2564 31.3636H61.0973V33.1591H60.5291L56.6655 39.2727V39.3636H63.5518V40.6136H55.1428ZM60.62 43V40.2614V39.7216V31.3636H61.9609V43H60.62Z" fill="black"/>
</svg>
