<svg width="70" height="70" viewBox="0 0 70 70" fill="none" xmlns="http://www.w3.org/2000/svg">
<circle cx="35" cy="35" r="33.5" fill="#EAD1E6" stroke="black" stroke-width="3"/>
<path d="M31.5455 30H28.7273C28.5606 29.1894 28.2689 28.4773 27.8523 27.8636C27.4432 27.25 26.9432 26.7348 26.3523 26.3182C25.7689 25.8939 25.1212 25.5758 24.4091 25.3636C23.697 25.1515 22.9545 25.0455 22.1818 25.0455C20.7727 25.0455 19.4962 25.4015 18.3523 26.1136C17.2159 26.8258 16.3106 27.875 15.6364 29.2614C14.9697 30.6477 14.6364 32.3485 14.6364 34.3636C14.6364 36.3788 14.9697 38.0795 15.6364 39.4659C16.3106 40.8523 17.2159 41.9015 18.3523 42.6136C19.4962 43.3258 20.7727 43.6818 22.1818 43.6818C22.9545 43.6818 23.697 43.5758 24.4091 43.3636C25.1212 43.1515 25.7689 42.8371 26.3523 42.4205C26.9432 41.9962 27.4432 41.4773 27.8523 40.8636C28.2689 40.2424 28.5606 39.5303 28.7273 38.7273H31.5455C31.3333 39.9167 30.947 40.9811 30.3864 41.9205C29.8258 42.8598 29.1288 43.6591 28.2955 44.3182C27.4621 44.9697 26.5265 45.4659 25.4886 45.8068C24.4583 46.1477 23.3561 46.3182 22.1818 46.3182C20.197 46.3182 18.4318 45.8333 16.8864 44.8636C15.3409 43.8939 14.125 42.5152 13.2386 40.7273C12.3523 38.9394 11.9091 36.8182 11.9091 34.3636C11.9091 31.9091 12.3523 29.7879 13.2386 28C14.125 26.2121 15.3409 24.8333 16.8864 23.8636C18.4318 22.8939 20.197 22.4091 22.1818 22.4091C23.3561 22.4091 24.4583 22.5795 25.4886 22.9205C26.5265 23.2614 27.4621 23.7614 28.2955 24.4205C29.1288 25.072 29.8258 25.8674 30.3864 26.8068C30.947 27.7386 31.3333 28.803 31.5455 30ZM36.0994 46V22.7273H38.9176V33.0909H51.3267V22.7273H54.1449V46H51.3267V35.5909H38.9176V46H36.0994Z" fill="black"/>
</svg>
