<svg width="70" height="70" viewBox="0 0 70 70" fill="none" xmlns="http://www.w3.org/2000/svg">
<circle cx="35" cy="35" r="33.5" fill="#FBE2E3" stroke="black" stroke-width="3"/>
<path d="M28.5455 31H25.7273C25.5606 30.1894 25.2689 29.4773 24.8523 28.8636C24.4432 28.25 23.9432 27.7348 23.3523 27.3182C22.7689 26.8939 22.1212 26.5758 21.4091 26.3636C20.697 26.1515 19.9545 26.0455 19.1818 26.0455C17.7727 26.0455 16.4962 26.4015 15.3523 27.1136C14.2159 27.8258 13.3106 28.875 12.6364 30.2614C11.9697 31.6477 11.6364 33.3485 11.6364 35.3636C11.6364 37.3788 11.9697 39.0795 12.6364 40.4659C13.3106 41.8523 14.2159 42.9015 15.3523 43.6136C16.4962 44.3258 17.7727 44.6818 19.1818 44.6818C19.9545 44.6818 20.697 44.5758 21.4091 44.3636C22.1212 44.1515 22.7689 43.8371 23.3523 43.4205C23.9432 42.9962 24.4432 42.4773 24.8523 41.8636C25.2689 41.2424 25.5606 40.5303 25.7273 39.7273H28.5455C28.3333 40.9167 27.947 41.9811 27.3864 42.9205C26.8258 43.8598 26.1288 44.6591 25.2955 45.3182C24.4621 45.9697 23.5265 46.4659 22.4886 46.8068C21.4583 47.1477 20.3561 47.3182 19.1818 47.3182C17.197 47.3182 15.4318 46.8333 13.8864 45.8636C12.3409 44.8939 11.125 43.5152 10.2386 41.7273C9.35227 39.9394 8.90909 37.8182 8.90909 35.3636C8.90909 32.9091 9.35227 30.7879 10.2386 29C11.125 27.2121 12.3409 25.8333 13.8864 24.8636C15.4318 23.8939 17.197 23.4091 19.1818 23.4091C20.3561 23.4091 21.4583 23.5795 22.4886 23.9205C23.5265 24.2614 24.4621 24.7614 25.2955 25.4205C26.1288 26.072 26.8258 26.8674 27.3864 27.8068C27.947 28.7386 28.3333 29.803 28.5455 31ZM33.0994 47V23.7273H35.9176V34.0909H48.3267V23.7273H51.1449V47H48.3267V36.5909H35.9176V47H33.0994ZM55.1733 47V45.9773L59.0142 41.7727C59.465 41.2803 59.8362 40.8523 60.1278 40.4886C60.4195 40.1212 60.6354 39.7765 60.7756 39.4545C60.9195 39.1288 60.9915 38.7879 60.9915 38.4318C60.9915 38.0227 60.893 37.6686 60.696 37.3693C60.5028 37.0701 60.2377 36.839 59.9006 36.6761C59.5634 36.5133 59.1847 36.4318 58.7642 36.4318C58.3172 36.4318 57.9271 36.5246 57.5938 36.7102C57.2642 36.892 57.0085 37.1477 56.8267 37.4773C56.6487 37.8068 56.5597 38.1932 56.5597 38.6364H55.2188C55.2188 37.9545 55.3759 37.3561 55.6903 36.8409C56.0047 36.3258 56.4328 35.9242 56.9744 35.6364C57.5199 35.3485 58.1316 35.2045 58.8097 35.2045C59.4915 35.2045 60.0956 35.3485 60.6222 35.6364C61.1487 35.9242 61.5616 36.3125 61.8608 36.8011C62.16 37.2898 62.3097 37.8333 62.3097 38.4318C62.3097 38.8598 62.232 39.2784 62.0767 39.6875C61.9252 40.0928 61.66 40.5455 61.2812 41.0455C60.9062 41.5417 60.3854 42.1477 59.7188 42.8636L57.1051 45.6591V45.75H62.5142V47H55.1733Z" fill="black"/>
</svg>
