<svg width="70" height="70" viewBox="0 0 70 70" fill="none" xmlns="http://www.w3.org/2000/svg">
<circle cx="35" cy="35" r="33.5" fill="#E73D4C" stroke="black" stroke-width="3"/>
<path d="M48.0682 34.4545C48.0682 37.5227 47.5142 40.1742 46.4062 42.4091C45.2983 44.6439 43.7784 46.3674 41.8466 47.5795C39.9148 48.7917 37.7083 49.3977 35.2273 49.3977C32.7462 49.3977 30.5398 48.7917 28.608 47.5795C26.6761 46.3674 25.1563 44.6439 24.0483 42.4091C22.9403 40.1742 22.3864 37.5227 22.3864 34.4545C22.3864 31.3864 22.9403 28.7348 24.0483 26.5C25.1563 24.2652 26.6761 22.5417 28.608 21.3295C30.5398 20.1174 32.7462 19.5114 35.2273 19.5114C37.7083 19.5114 39.9148 20.1174 41.8466 21.3295C43.7784 22.5417 45.2983 24.2652 46.4062 26.5C47.5142 28.7348 48.0682 31.3864 48.0682 34.4545ZM44.6591 34.4545C44.6591 31.9356 44.2377 29.8097 43.3949 28.0767C42.5616 26.3438 41.4299 25.0322 40 24.142C38.5795 23.2519 36.9886 22.8068 35.2273 22.8068C33.4659 22.8068 31.8703 23.2519 30.4403 24.142C29.0199 25.0322 27.8883 26.3438 27.0455 28.0767C26.2121 29.8097 25.7955 31.9356 25.7955 34.4545C25.7955 36.9735 26.2121 39.0994 27.0455 40.8324C27.8883 42.5653 29.0199 43.8769 30.4403 44.767C31.8703 45.6572 33.4659 46.1023 35.2273 46.1023C36.9886 46.1023 38.5795 45.6572 40 44.767C41.4299 43.8769 42.5616 42.5653 43.3949 40.8324C44.2377 39.0994 44.6591 36.9735 44.6591 34.4545Z" fill="black"/>
</svg>
